# xmcd
#
# Track frame offsets: 
#        150
#        24103
#        35464
#        47709
#        60617
#        75412
#        86412
#        99794
#        123817
#        145039
#
# Disc length: 2078 seconds
#
# Revision: 3
# Processed by: cddbd v1.5.2PL0 Copyright (c) Steve Scherf et al.
# Submitted via: ExactAudioCopy v0.99pb4
#
DISCID=66081c0a
DTITLE=Townes Van Zandt - Townes Van Zandt
DYEAR=1969
DGENRE=Country
TTITLE0=For the Sake of the Song
TTITLE1=Columbine
TTITLE2=Waitin' Around to Die
TTITLE3=Don't Take it too Bad
TTITLE4=Colorado Girl
TTITLE5=Lungs
TTITLE6=I'll be Here in the Morning
TTITLE7=Fare Thee Well, Miss Carousel
TTITLE8=(Quicksilver Daydreams of) Maria
TTITLE9=None But the Rain
EXTD=YEAR: 1969
EXTT0=\n
EXTT1=
EXTT2=
EXTT3=
EXTT4=
EXTT5=
EXTT6=
EXTT7=
EXTT8=
EXTT9=
PLAYORDER=
